<mxfile host="app.diagrams.net" modified="2023-06-17T01:52:16.464Z" agent="Mozilla/5.0 (X11; Linux x86_64) AppleWebKit/537.36 (KHTML, like Gecko) Chrome/111.0.0.0 Safari/537.36" etag="ko__W5BIQpDZEG-fa9Ad" version="21.4.0" type="github">
  <diagram name="Página-1" id="jcunWO9z9jjdBDZZC4yS">
    <mxGraphModel dx="1701" dy="497" grid="1" gridSize="10" guides="1" tooltips="1" connect="1" arrows="1" fold="1" page="1" pageScale="1" pageWidth="827" pageHeight="1169" math="0" shadow="0">
      <root>
        <mxCell id="0" />
        <mxCell id="1" parent="0" />
        <mxCell id="ybN5rmwgNswl0SK-ROpf-93" value="" style="edgeStyle=orthogonalEdgeStyle;rounded=0;orthogonalLoop=1;jettySize=auto;html=1;" parent="1" source="ybN5rmwgNswl0SK-ROpf-1" target="ybN5rmwgNswl0SK-ROpf-11" edge="1">
          <mxGeometry relative="1" as="geometry" />
        </mxCell>
        <mxCell id="ybN5rmwgNswl0SK-ROpf-1" value="Início" style="strokeWidth=2;html=1;shape=mxgraph.flowchart.start_2;whiteSpace=wrap;aspect=fixed;" parent="1" vertex="1">
          <mxGeometry x="60" y="20" width="40" height="40" as="geometry" />
        </mxCell>
        <mxCell id="ybN5rmwgNswl0SK-ROpf-3" value="Fim" style="strokeWidth=2;html=1;shape=mxgraph.flowchart.start_2;whiteSpace=wrap;aspect=fixed;" parent="1" vertex="1">
          <mxGeometry x="60" y="350" width="40" height="40" as="geometry" />
        </mxCell>
        <mxCell id="ybN5rmwgNswl0SK-ROpf-99" style="edgeStyle=orthogonalEdgeStyle;rounded=0;orthogonalLoop=1;jettySize=auto;html=1;entryX=0.75;entryY=0;entryDx=0;entryDy=0;exitX=1;exitY=0.5;exitDx=0;exitDy=0;exitPerimeter=0;" parent="1" source="ybN5rmwgNswl0SK-ROpf-4" target="ybN5rmwgNswl0SK-ROpf-10" edge="1">
          <mxGeometry relative="1" as="geometry" />
        </mxCell>
        <mxCell id="ybN5rmwgNswl0SK-ROpf-4" value="para i de 1 até 3" style="strokeWidth=2;html=1;shape=mxgraph.flowchart.loop_limit;whiteSpace=wrap;" parent="1" vertex="1">
          <mxGeometry x="30" y="160" width="100" height="40" as="geometry" />
        </mxCell>
        <mxCell id="ybN5rmwgNswl0SK-ROpf-7" value="" style="group" parent="1" vertex="1" connectable="0">
          <mxGeometry x="30" y="280" width="100" height="40" as="geometry" />
        </mxCell>
        <mxCell id="ybN5rmwgNswl0SK-ROpf-5" value="" style="strokeWidth=2;html=1;shape=mxgraph.flowchart.loop_limit;whiteSpace=wrap;rotation=-180;horizontal=1;verticalAlign=middle;textDirection=ltr;" parent="ybN5rmwgNswl0SK-ROpf-7" vertex="1">
          <mxGeometry width="100" height="40" as="geometry" />
        </mxCell>
        <mxCell id="ybN5rmwgNswl0SK-ROpf-6" value="Fim para" style="text;strokeColor=none;align=center;fillColor=none;html=1;verticalAlign=middle;whiteSpace=wrap;rounded=0;" parent="ybN5rmwgNswl0SK-ROpf-7" vertex="1">
          <mxGeometry x="20" y="10" width="60" height="20" as="geometry" />
        </mxCell>
        <mxCell id="ybN5rmwgNswl0SK-ROpf-100" style="edgeStyle=orthogonalEdgeStyle;rounded=0;orthogonalLoop=1;jettySize=auto;html=1;entryX=0;entryY=0.5;entryDx=0;entryDy=0;entryPerimeter=0;exitX=0.75;exitY=1;exitDx=0;exitDy=0;" parent="1" source="ybN5rmwgNswl0SK-ROpf-10" target="ybN5rmwgNswl0SK-ROpf-5" edge="1">
          <mxGeometry relative="1" as="geometry" />
        </mxCell>
        <mxCell id="ybN5rmwgNswl0SK-ROpf-10" value="s = s + 1" style="rounded=0;whiteSpace=wrap;html=1;strokeWidth=2;" parent="1" vertex="1">
          <mxGeometry x="90" y="220" width="80" height="30" as="geometry" />
        </mxCell>
        <mxCell id="ybN5rmwgNswl0SK-ROpf-98" value="" style="edgeStyle=orthogonalEdgeStyle;rounded=0;orthogonalLoop=1;jettySize=auto;html=1;" parent="1" source="ybN5rmwgNswl0SK-ROpf-11" target="ybN5rmwgNswl0SK-ROpf-4" edge="1">
          <mxGeometry relative="1" as="geometry" />
        </mxCell>
        <mxCell id="ybN5rmwgNswl0SK-ROpf-11" value="s = 0" style="rounded=0;whiteSpace=wrap;html=1;strokeWidth=2;" parent="1" vertex="1">
          <mxGeometry x="40" y="90" width="80" height="30" as="geometry" />
        </mxCell>
        <mxCell id="ybN5rmwgNswl0SK-ROpf-30" value="Fim" style="strokeWidth=2;html=1;shape=mxgraph.flowchart.start_2;whiteSpace=wrap;aspect=fixed;" parent="1" vertex="1">
          <mxGeometry x="-100" y="150" width="40" height="40" as="geometry" />
        </mxCell>
        <mxCell id="ybN5rmwgNswl0SK-ROpf-92" value="" style="edgeStyle=orthogonalEdgeStyle;rounded=0;orthogonalLoop=1;jettySize=auto;html=1;" parent="1" source="ybN5rmwgNswl0SK-ROpf-35" target="ybN5rmwgNswl0SK-ROpf-30" edge="1">
          <mxGeometry relative="1" as="geometry" />
        </mxCell>
        <mxCell id="ybN5rmwgNswl0SK-ROpf-35" value="s = 1 + 2 + 3 + 4" style="rounded=0;whiteSpace=wrap;html=1;strokeWidth=2;" parent="1" vertex="1">
          <mxGeometry x="-130" y="90" width="100" height="30" as="geometry" />
        </mxCell>
        <mxCell id="ybN5rmwgNswl0SK-ROpf-91" value="" style="edgeStyle=orthogonalEdgeStyle;rounded=0;orthogonalLoop=1;jettySize=auto;html=1;" parent="1" source="ybN5rmwgNswl0SK-ROpf-37" target="ybN5rmwgNswl0SK-ROpf-35" edge="1">
          <mxGeometry relative="1" as="geometry" />
        </mxCell>
        <mxCell id="ybN5rmwgNswl0SK-ROpf-37" value="Início" style="strokeWidth=2;html=1;shape=mxgraph.flowchart.start_2;whiteSpace=wrap;aspect=fixed;" parent="1" vertex="1">
          <mxGeometry x="-100" y="20" width="40" height="40" as="geometry" />
        </mxCell>
        <mxCell id="ybN5rmwgNswl0SK-ROpf-142" value="" style="edgeStyle=orthogonalEdgeStyle;rounded=0;orthogonalLoop=1;jettySize=auto;html=1;" parent="1" source="ybN5rmwgNswl0SK-ROpf-64" target="ybN5rmwgNswl0SK-ROpf-141" edge="1">
          <mxGeometry relative="1" as="geometry" />
        </mxCell>
        <mxCell id="ybN5rmwgNswl0SK-ROpf-64" value="n" style="html=1;strokeWidth=2;shape=manualInput;whiteSpace=wrap;rounded=1;size=26;arcSize=11;" parent="1" vertex="1">
          <mxGeometry x="360" y="90" width="100" height="50" as="geometry" />
        </mxCell>
        <mxCell id="ybN5rmwgNswl0SK-ROpf-102" style="edgeStyle=orthogonalEdgeStyle;rounded=0;orthogonalLoop=1;jettySize=auto;html=1;entryX=0.5;entryY=0;entryDx=0;entryDy=0;entryPerimeter=0;" parent="1" source="ybN5rmwgNswl0SK-ROpf-5" target="ybN5rmwgNswl0SK-ROpf-3" edge="1">
          <mxGeometry relative="1" as="geometry" />
        </mxCell>
        <mxCell id="ybN5rmwgNswl0SK-ROpf-103" value="" style="edgeStyle=orthogonalEdgeStyle;rounded=0;orthogonalLoop=1;jettySize=auto;html=1;" parent="1" source="ybN5rmwgNswl0SK-ROpf-104" target="ybN5rmwgNswl0SK-ROpf-114" edge="1">
          <mxGeometry relative="1" as="geometry" />
        </mxCell>
        <mxCell id="ybN5rmwgNswl0SK-ROpf-104" value="Início" style="strokeWidth=2;html=1;shape=mxgraph.flowchart.start_2;whiteSpace=wrap;aspect=fixed;" parent="1" vertex="1">
          <mxGeometry x="220" y="20" width="40" height="40" as="geometry" />
        </mxCell>
        <mxCell id="ybN5rmwgNswl0SK-ROpf-105" value="Fim" style="strokeWidth=2;html=1;shape=mxgraph.flowchart.start_2;whiteSpace=wrap;aspect=fixed;" parent="1" vertex="1">
          <mxGeometry x="220" y="350" width="40" height="40" as="geometry" />
        </mxCell>
        <mxCell id="ybN5rmwgNswl0SK-ROpf-106" style="edgeStyle=orthogonalEdgeStyle;rounded=0;orthogonalLoop=1;jettySize=auto;html=1;entryX=0.75;entryY=0;entryDx=0;entryDy=0;exitX=1;exitY=0.5;exitDx=0;exitDy=0;exitPerimeter=0;" parent="1" source="ybN5rmwgNswl0SK-ROpf-107" target="ybN5rmwgNswl0SK-ROpf-112" edge="1">
          <mxGeometry relative="1" as="geometry" />
        </mxCell>
        <mxCell id="ybN5rmwgNswl0SK-ROpf-107" value="para i de 1 até 3" style="strokeWidth=2;html=1;shape=mxgraph.flowchart.loop_limit;whiteSpace=wrap;" parent="1" vertex="1">
          <mxGeometry x="190" y="160" width="100" height="40" as="geometry" />
        </mxCell>
        <mxCell id="ybN5rmwgNswl0SK-ROpf-108" value="" style="group" parent="1" vertex="1" connectable="0">
          <mxGeometry x="190" y="280" width="100" height="40" as="geometry" />
        </mxCell>
        <mxCell id="ybN5rmwgNswl0SK-ROpf-109" value="" style="strokeWidth=2;html=1;shape=mxgraph.flowchart.loop_limit;whiteSpace=wrap;rotation=-180;horizontal=1;verticalAlign=middle;textDirection=ltr;" parent="ybN5rmwgNswl0SK-ROpf-108" vertex="1">
          <mxGeometry width="100" height="40" as="geometry" />
        </mxCell>
        <mxCell id="ybN5rmwgNswl0SK-ROpf-110" value="Fim para" style="text;strokeColor=none;align=center;fillColor=none;html=1;verticalAlign=middle;whiteSpace=wrap;rounded=0;" parent="ybN5rmwgNswl0SK-ROpf-108" vertex="1">
          <mxGeometry x="20" y="10" width="60" height="20" as="geometry" />
        </mxCell>
        <mxCell id="ybN5rmwgNswl0SK-ROpf-111" style="edgeStyle=orthogonalEdgeStyle;rounded=0;orthogonalLoop=1;jettySize=auto;html=1;entryX=0;entryY=0.5;entryDx=0;entryDy=0;entryPerimeter=0;exitX=0.75;exitY=1;exitDx=0;exitDy=0;" parent="1" source="ybN5rmwgNswl0SK-ROpf-112" target="ybN5rmwgNswl0SK-ROpf-109" edge="1">
          <mxGeometry relative="1" as="geometry" />
        </mxCell>
        <mxCell id="ybN5rmwgNswl0SK-ROpf-112" value="s = s + i" style="rounded=0;whiteSpace=wrap;html=1;strokeWidth=2;" parent="1" vertex="1">
          <mxGeometry x="250" y="220" width="80" height="30" as="geometry" />
        </mxCell>
        <mxCell id="ybN5rmwgNswl0SK-ROpf-113" value="" style="edgeStyle=orthogonalEdgeStyle;rounded=0;orthogonalLoop=1;jettySize=auto;html=1;" parent="1" source="ybN5rmwgNswl0SK-ROpf-114" target="ybN5rmwgNswl0SK-ROpf-107" edge="1">
          <mxGeometry relative="1" as="geometry" />
        </mxCell>
        <mxCell id="ybN5rmwgNswl0SK-ROpf-114" value="s = 0" style="rounded=0;whiteSpace=wrap;html=1;strokeWidth=2;" parent="1" vertex="1">
          <mxGeometry x="200" y="90" width="80" height="30" as="geometry" />
        </mxCell>
        <mxCell id="ybN5rmwgNswl0SK-ROpf-115" style="edgeStyle=orthogonalEdgeStyle;rounded=0;orthogonalLoop=1;jettySize=auto;html=1;entryX=0.5;entryY=0;entryDx=0;entryDy=0;entryPerimeter=0;" parent="1" source="ybN5rmwgNswl0SK-ROpf-109" target="ybN5rmwgNswl0SK-ROpf-105" edge="1">
          <mxGeometry relative="1" as="geometry" />
        </mxCell>
        <mxCell id="ybN5rmwgNswl0SK-ROpf-128" value="" style="edgeStyle=orthogonalEdgeStyle;rounded=0;orthogonalLoop=1;jettySize=auto;html=1;entryX=0.5;entryY=0.26;entryDx=0;entryDy=0;entryPerimeter=0;" parent="1" source="ybN5rmwgNswl0SK-ROpf-129" target="ybN5rmwgNswl0SK-ROpf-64" edge="1">
          <mxGeometry relative="1" as="geometry">
            <mxPoint x="410" y="90" as="targetPoint" />
          </mxGeometry>
        </mxCell>
        <mxCell id="ybN5rmwgNswl0SK-ROpf-129" value="Início" style="strokeWidth=2;html=1;shape=mxgraph.flowchart.start_2;whiteSpace=wrap;aspect=fixed;" parent="1" vertex="1">
          <mxGeometry x="390" y="20" width="40" height="40" as="geometry" />
        </mxCell>
        <mxCell id="ybN5rmwgNswl0SK-ROpf-130" value="Fim" style="strokeWidth=2;html=1;shape=mxgraph.flowchart.start_2;whiteSpace=wrap;aspect=fixed;" parent="1" vertex="1">
          <mxGeometry x="390" y="430" width="40" height="40" as="geometry" />
        </mxCell>
        <mxCell id="ybN5rmwgNswl0SK-ROpf-131" style="edgeStyle=orthogonalEdgeStyle;rounded=0;orthogonalLoop=1;jettySize=auto;html=1;entryX=0.75;entryY=0;entryDx=0;entryDy=0;exitX=1;exitY=0.5;exitDx=0;exitDy=0;exitPerimeter=0;" parent="1" source="ybN5rmwgNswl0SK-ROpf-132" target="ybN5rmwgNswl0SK-ROpf-137" edge="1">
          <mxGeometry relative="1" as="geometry" />
        </mxCell>
        <mxCell id="ybN5rmwgNswl0SK-ROpf-132" value="para i de 1 até n" style="strokeWidth=2;html=1;shape=mxgraph.flowchart.loop_limit;whiteSpace=wrap;" parent="1" vertex="1">
          <mxGeometry x="360" y="240" width="100" height="40" as="geometry" />
        </mxCell>
        <mxCell id="ybN5rmwgNswl0SK-ROpf-133" value="" style="group" parent="1" vertex="1" connectable="0">
          <mxGeometry x="360" y="360" width="100" height="40" as="geometry" />
        </mxCell>
        <mxCell id="ybN5rmwgNswl0SK-ROpf-134" value="" style="strokeWidth=2;html=1;shape=mxgraph.flowchart.loop_limit;whiteSpace=wrap;rotation=-180;horizontal=1;verticalAlign=middle;textDirection=ltr;" parent="ybN5rmwgNswl0SK-ROpf-133" vertex="1">
          <mxGeometry width="100" height="40" as="geometry" />
        </mxCell>
        <mxCell id="ybN5rmwgNswl0SK-ROpf-135" value="Fim para" style="text;strokeColor=none;align=center;fillColor=none;html=1;verticalAlign=middle;whiteSpace=wrap;rounded=0;" parent="ybN5rmwgNswl0SK-ROpf-133" vertex="1">
          <mxGeometry x="20" y="10" width="60" height="20" as="geometry" />
        </mxCell>
        <mxCell id="ybN5rmwgNswl0SK-ROpf-136" style="edgeStyle=orthogonalEdgeStyle;rounded=0;orthogonalLoop=1;jettySize=auto;html=1;entryX=0;entryY=0.5;entryDx=0;entryDy=0;entryPerimeter=0;exitX=0.75;exitY=1;exitDx=0;exitDy=0;" parent="1" source="ybN5rmwgNswl0SK-ROpf-137" target="ybN5rmwgNswl0SK-ROpf-134" edge="1">
          <mxGeometry relative="1" as="geometry" />
        </mxCell>
        <mxCell id="ybN5rmwgNswl0SK-ROpf-137" value="s = s + i&amp;nbsp;" style="rounded=0;whiteSpace=wrap;html=1;strokeWidth=2;" parent="1" vertex="1">
          <mxGeometry x="420" y="300" width="80" height="30" as="geometry" />
        </mxCell>
        <mxCell id="ybN5rmwgNswl0SK-ROpf-140" style="edgeStyle=orthogonalEdgeStyle;rounded=0;orthogonalLoop=1;jettySize=auto;html=1;entryX=0.5;entryY=0;entryDx=0;entryDy=0;entryPerimeter=0;" parent="1" source="ybN5rmwgNswl0SK-ROpf-134" target="ybN5rmwgNswl0SK-ROpf-130" edge="1">
          <mxGeometry relative="1" as="geometry" />
        </mxCell>
        <mxCell id="ybN5rmwgNswl0SK-ROpf-146" value="" style="edgeStyle=orthogonalEdgeStyle;rounded=0;orthogonalLoop=1;jettySize=auto;html=1;" parent="1" source="ybN5rmwgNswl0SK-ROpf-141" edge="1">
          <mxGeometry relative="1" as="geometry">
            <mxPoint x="410" y="240" as="targetPoint" />
          </mxGeometry>
        </mxCell>
        <mxCell id="ybN5rmwgNswl0SK-ROpf-141" value="s = 0" style="rounded=0;whiteSpace=wrap;html=1;strokeWidth=2;" parent="1" vertex="1">
          <mxGeometry x="370" y="170" width="80" height="30" as="geometry" />
        </mxCell>
        <mxCell id="ybN5rmwgNswl0SK-ROpf-150" value="Fim" style="strokeWidth=2;html=1;shape=mxgraph.flowchart.start_2;whiteSpace=wrap;aspect=fixed;" parent="1" vertex="1">
          <mxGeometry x="560" y="360" width="40" height="40" as="geometry" />
        </mxCell>
        <mxCell id="ybN5rmwgNswl0SK-ROpf-151" style="edgeStyle=orthogonalEdgeStyle;rounded=0;orthogonalLoop=1;jettySize=auto;html=1;entryX=0.75;entryY=0;entryDx=0;entryDy=0;exitX=1;exitY=0.5;exitDx=0;exitDy=0;exitPerimeter=0;" parent="1" source="ybN5rmwgNswl0SK-ROpf-152" target="ybN5rmwgNswl0SK-ROpf-157" edge="1">
          <mxGeometry relative="1" as="geometry" />
        </mxCell>
        <mxCell id="ybN5rmwgNswl0SK-ROpf-152" value="para i de 1 até 10" style="strokeWidth=2;html=1;shape=mxgraph.flowchart.loop_limit;whiteSpace=wrap;" parent="1" vertex="1">
          <mxGeometry x="530" y="170" width="100" height="40" as="geometry" />
        </mxCell>
        <mxCell id="ybN5rmwgNswl0SK-ROpf-153" value="" style="group" parent="1" vertex="1" connectable="0">
          <mxGeometry x="530" y="290" width="100" height="40" as="geometry" />
        </mxCell>
        <mxCell id="ybN5rmwgNswl0SK-ROpf-154" value="" style="strokeWidth=2;html=1;shape=mxgraph.flowchart.loop_limit;whiteSpace=wrap;rotation=-180;horizontal=1;verticalAlign=middle;textDirection=ltr;" parent="ybN5rmwgNswl0SK-ROpf-153" vertex="1">
          <mxGeometry width="100" height="40" as="geometry" />
        </mxCell>
        <mxCell id="ybN5rmwgNswl0SK-ROpf-155" value="Fim para" style="text;strokeColor=none;align=center;fillColor=none;html=1;verticalAlign=middle;whiteSpace=wrap;rounded=0;" parent="ybN5rmwgNswl0SK-ROpf-153" vertex="1">
          <mxGeometry x="20" y="10" width="60" height="20" as="geometry" />
        </mxCell>
        <mxCell id="ybN5rmwgNswl0SK-ROpf-156" style="edgeStyle=orthogonalEdgeStyle;rounded=0;orthogonalLoop=1;jettySize=auto;html=1;entryX=0;entryY=0.5;entryDx=0;entryDy=0;entryPerimeter=0;exitX=0.75;exitY=1;exitDx=0;exitDy=0;" parent="1" source="ybN5rmwgNswl0SK-ROpf-157" target="ybN5rmwgNswl0SK-ROpf-154" edge="1">
          <mxGeometry relative="1" as="geometry" />
        </mxCell>
        <mxCell id="ybN5rmwgNswl0SK-ROpf-157" value="s = s + i&amp;nbsp; / i * i" style="rounded=0;whiteSpace=wrap;html=1;strokeWidth=2;" parent="1" vertex="1">
          <mxGeometry x="590" y="230" width="80" height="30" as="geometry" />
        </mxCell>
        <mxCell id="ybN5rmwgNswl0SK-ROpf-158" style="edgeStyle=orthogonalEdgeStyle;rounded=0;orthogonalLoop=1;jettySize=auto;html=1;entryX=0.5;entryY=0;entryDx=0;entryDy=0;entryPerimeter=0;" parent="1" source="ybN5rmwgNswl0SK-ROpf-154" target="ybN5rmwgNswl0SK-ROpf-150" edge="1">
          <mxGeometry relative="1" as="geometry" />
        </mxCell>
        <mxCell id="ybN5rmwgNswl0SK-ROpf-159" value="" style="edgeStyle=orthogonalEdgeStyle;rounded=0;orthogonalLoop=1;jettySize=auto;html=1;" parent="1" source="ybN5rmwgNswl0SK-ROpf-160" edge="1">
          <mxGeometry relative="1" as="geometry">
            <mxPoint x="580" y="170" as="targetPoint" />
          </mxGeometry>
        </mxCell>
        <mxCell id="ybN5rmwgNswl0SK-ROpf-160" value="s = 0" style="rounded=0;whiteSpace=wrap;html=1;strokeWidth=2;" parent="1" vertex="1">
          <mxGeometry x="540" y="100" width="80" height="30" as="geometry" />
        </mxCell>
        <mxCell id="ybN5rmwgNswl0SK-ROpf-162" style="edgeStyle=orthogonalEdgeStyle;rounded=0;orthogonalLoop=1;jettySize=auto;html=1;entryX=0.5;entryY=0;entryDx=0;entryDy=0;" parent="1" source="ybN5rmwgNswl0SK-ROpf-161" target="ybN5rmwgNswl0SK-ROpf-160" edge="1">
          <mxGeometry relative="1" as="geometry" />
        </mxCell>
        <mxCell id="ybN5rmwgNswl0SK-ROpf-161" value="Início" style="strokeWidth=2;html=1;shape=mxgraph.flowchart.start_2;whiteSpace=wrap;aspect=fixed;" parent="1" vertex="1">
          <mxGeometry x="560" y="20" width="40" height="40" as="geometry" />
        </mxCell>
        <mxCell id="kI8NatykTw5WNcKrWR2c-61" style="edgeStyle=orthogonalEdgeStyle;rounded=0;orthogonalLoop=1;jettySize=auto;html=1;" edge="1" parent="1" source="kI8NatykTw5WNcKrWR2c-48" target="kI8NatykTw5WNcKrWR2c-60">
          <mxGeometry relative="1" as="geometry" />
        </mxCell>
        <mxCell id="kI8NatykTw5WNcKrWR2c-48" value="Início" style="strokeWidth=2;html=1;shape=mxgraph.flowchart.start_2;whiteSpace=wrap;aspect=fixed;" vertex="1" parent="1">
          <mxGeometry y="610" width="40" height="40" as="geometry" />
        </mxCell>
        <mxCell id="kI8NatykTw5WNcKrWR2c-49" value="Fim" style="strokeWidth=2;html=1;shape=mxgraph.flowchart.start_2;whiteSpace=wrap;aspect=fixed;" vertex="1" parent="1">
          <mxGeometry x="-10" y="1020" width="40" height="40" as="geometry" />
        </mxCell>
        <mxCell id="kI8NatykTw5WNcKrWR2c-64" style="edgeStyle=orthogonalEdgeStyle;rounded=0;orthogonalLoop=1;jettySize=auto;html=1;entryX=0.61;entryY=-0.05;entryDx=0;entryDy=0;entryPerimeter=0;exitX=1;exitY=0.5;exitDx=0;exitDy=0;exitPerimeter=0;" edge="1" parent="1" source="kI8NatykTw5WNcKrWR2c-51" target="kI8NatykTw5WNcKrWR2c-63">
          <mxGeometry relative="1" as="geometry" />
        </mxCell>
        <mxCell id="kI8NatykTw5WNcKrWR2c-51" value="para i de 1 até n" style="strokeWidth=2;html=1;shape=mxgraph.flowchart.loop_limit;whiteSpace=wrap;" vertex="1" parent="1">
          <mxGeometry x="-40" y="780" width="120" height="40" as="geometry" />
        </mxCell>
        <mxCell id="kI8NatykTw5WNcKrWR2c-52" value="" style="group" vertex="1" connectable="0" parent="1">
          <mxGeometry x="-40" y="950" width="100" height="40" as="geometry" />
        </mxCell>
        <mxCell id="kI8NatykTw5WNcKrWR2c-53" value="" style="strokeWidth=2;html=1;shape=mxgraph.flowchart.loop_limit;whiteSpace=wrap;rotation=-180;horizontal=1;verticalAlign=middle;textDirection=ltr;" vertex="1" parent="kI8NatykTw5WNcKrWR2c-52">
          <mxGeometry width="100" height="40" as="geometry" />
        </mxCell>
        <mxCell id="kI8NatykTw5WNcKrWR2c-54" value="Fim para" style="text;strokeColor=none;align=center;fillColor=none;html=1;verticalAlign=middle;whiteSpace=wrap;rounded=0;" vertex="1" parent="kI8NatykTw5WNcKrWR2c-52">
          <mxGeometry x="20" y="10" width="60" height="20" as="geometry" />
        </mxCell>
        <mxCell id="kI8NatykTw5WNcKrWR2c-59" style="edgeStyle=orthogonalEdgeStyle;rounded=0;orthogonalLoop=1;jettySize=auto;html=1;entryX=0.5;entryY=0;entryDx=0;entryDy=0;entryPerimeter=0;" edge="1" parent="1" source="kI8NatykTw5WNcKrWR2c-53" target="kI8NatykTw5WNcKrWR2c-49">
          <mxGeometry relative="1" as="geometry" />
        </mxCell>
        <mxCell id="kI8NatykTw5WNcKrWR2c-62" style="edgeStyle=orthogonalEdgeStyle;rounded=0;orthogonalLoop=1;jettySize=auto;html=1;entryX=0.58;entryY=0;entryDx=0;entryDy=0;entryPerimeter=0;" edge="1" parent="1" source="kI8NatykTw5WNcKrWR2c-60" target="kI8NatykTw5WNcKrWR2c-51">
          <mxGeometry relative="1" as="geometry" />
        </mxCell>
        <mxCell id="kI8NatykTw5WNcKrWR2c-60" value="&lt;br&gt;n" style="html=1;strokeWidth=2;shape=manualInput;whiteSpace=wrap;rounded=1;size=26;arcSize=11;" vertex="1" parent="1">
          <mxGeometry x="-30" y="680" width="100" height="60" as="geometry" />
        </mxCell>
        <mxCell id="kI8NatykTw5WNcKrWR2c-65" style="edgeStyle=orthogonalEdgeStyle;rounded=0;orthogonalLoop=1;jettySize=auto;html=1;entryX=0;entryY=0.5;entryDx=0;entryDy=0;entryPerimeter=0;" edge="1" parent="1" source="kI8NatykTw5WNcKrWR2c-63" target="kI8NatykTw5WNcKrWR2c-53">
          <mxGeometry relative="1" as="geometry" />
        </mxCell>
        <mxCell id="kI8NatykTw5WNcKrWR2c-63" value="i" style="strokeWidth=2;html=1;shape=mxgraph.flowchart.display;whiteSpace=wrap;" vertex="1" parent="1">
          <mxGeometry x="40" y="860" width="100" height="40" as="geometry" />
        </mxCell>
      </root>
    </mxGraphModel>
  </diagram>
</mxfile>
